<svg width="118" height="152" viewBox="0 0 118 152" fill="none" xmlns="http://www.w3.org/2000/svg">
<path fill-rule="evenodd" clip-rule="evenodd" d="M80.5558 0.161377H15.0382C6.75394 0.161377 0.038208 6.8771 0.038208 15.1614V136.839C0.038208 145.123 6.75394 151.839 15.0382 151.839H102.962C111.246 151.839 117.962 145.123 117.962 136.839V38.2633L100.314 42.9919C96.0467 44.1354 91.66 41.6027 90.5165 37.335L80.5558 0.161377ZM84.9467 1.09346C87.3981 3.46836 94.0602 9.93252 100.763 16.5232C109.252 24.8694 117.807 33.4185 117.96 34.1227L99.2792 39.1282C97.1453 39.6999 94.952 38.4336 94.3802 36.2997L84.9467 1.09346ZM31 34.8081C22.7157 34.8081 16 41.5238 16 49.8081V59.8081C16 62.9921 16.992 65.9443 18.6838 68.3727C19.0294 65.3015 20.181 62.4693 21.9213 60.097C22.9013 58.7611 24.7788 58.4726 26.1147 59.4526C27.4506 60.4327 27.7391 62.3101 26.7591 63.646C25.3841 65.5204 24.5748 67.8239 24.5748 70.3227C24.5748 71.4553 24.7421 72.55 25.0536 73.5833C26.8768 74.3714 28.8874 74.8081 31 74.8081H41C43.1126 74.8081 45.1232 74.3714 46.9464 73.5833C47.2579 72.55 47.4252 71.4553 47.4252 70.3227C47.4252 67.8239 46.6159 65.5204 45.2409 63.646C44.2609 62.3101 44.5494 60.4327 45.8853 59.4526C47.2212 58.4726 49.0987 58.7611 50.0787 60.097C51.819 62.4693 52.9706 65.3015 53.3162 68.3727C55.008 65.9443 56 62.9921 56 59.8081V49.8081C56 41.5238 49.2843 34.8081 41 34.8081H31ZM29.4575 50.4851C29.4575 46.8718 32.3867 43.9426 36 43.9426C39.6133 43.9426 42.5425 46.8718 42.5425 50.4851C42.5425 52.3852 41.7364 54.0925 40.4385 55.2918C39.2698 56.3718 37.7149 57.0276 36 57.0276C34.2851 57.0276 32.7302 56.3718 31.5615 55.2918C30.2636 54.0925 29.4575 52.3852 29.4575 50.4851ZM36 37.9426C29.073 37.9426 23.4575 43.5581 23.4575 50.4851C23.4575 54.1276 25.0141 57.4111 27.4894 59.6984C29.723 61.7624 32.7171 63.0276 36 63.0276C39.2829 63.0276 42.277 61.7624 44.5106 59.6984C46.9859 57.4111 48.5425 54.1276 48.5425 50.4851C48.5425 43.5581 42.927 37.9426 36 37.9426ZM70 54.8081C67.7909 54.8081 66 56.599 66 58.8081C66 61.0172 67.7909 62.8081 70 62.8081H98C100.209 62.8081 102 61.0172 102 58.8081C102 56.599 100.209 54.8081 98 54.8081H70ZM66 70.8081C66 68.599 67.7909 66.8081 70 66.8081H98C100.209 66.8081 102 68.599 102 70.8081C102 73.0172 100.209 74.8081 98 74.8081H70C67.7909 74.8081 66 73.0172 66 70.8081ZM20 84.8081C17.7909 84.8081 16 86.599 16 88.8081C16 91.0172 17.7909 92.8081 20 92.8081H98C100.209 92.8081 102 91.0172 102 88.8081C102 86.599 100.209 84.8081 98 84.8081H20ZM16 100.808C16 98.599 17.7909 96.8081 20 96.8081H98C100.209 96.8081 102 98.599 102 100.808C102 103.017 100.209 104.808 98 104.808H20C17.7909 104.808 16 103.017 16 100.808ZM20 108.808C17.7909 108.808 16 110.599 16 112.808C16 115.017 17.7909 116.808 20 116.808H98C100.209 116.808 102 115.017 102 112.808C102 110.599 100.209 108.808 98 108.808H20Z" fill="#F36BFA"/>
</svg>
