<svg width="136" height="186" viewBox="0 0 136 186" fill="none" xmlns="http://www.w3.org/2000/svg">
<path d="M108.322 9.60327C93.8061 47.6287 60.2834 66.8861 41.9957 76.832C23.708 86.778 22.7287 87.5002 9.69908 118.241C-3.33054 148.982 5.63967 174.642 39.7859 180.691C65.7431 185.289 91.5699 183.471 110.248 162.196C116.141 155.484 121.322 146.836 125.571 135.842C125.617 135.722 125.663 135.603 125.709 135.484C129.365 125.956 131.354 117.977 131.986 111.341C134.301 87.012 118.098 80.8071 99.1118 82.4267C111.09 52.002 109.397 12.891 108.322 9.60327Z" fill="#FAC8FD"/>
<path d="M59.3057 118.241C79.6585 116.007 91.8781 100.801 99.1118 82.4267M106.233 116.34C122.353 118.422 128.421 115.816 131.986 111.341M89.9504 138.982C108.206 145.15 120.354 139.44 125.709 135.484M73.0705 162.196C86.8081 167.177 103.761 165.02 110.248 162.196M131.986 111.341C131.354 117.977 129.365 125.956 125.709 135.484M131.986 111.341C134.301 87.012 118.098 80.8071 99.1118 82.4267M125.709 135.484C125.663 135.603 125.617 135.722 125.571 135.842C121.322 146.836 116.141 155.484 110.248 162.196M110.248 162.196C91.5699 183.471 65.7431 185.289 39.7859 180.691C5.63967 174.642 -3.33054 148.982 9.69908 118.241C22.7287 87.5002 23.708 86.778 41.9957 76.832C60.2834 66.8861 93.8061 47.6287 108.322 9.60327C109.397 12.891 111.09 52.002 99.1118 82.4267" stroke="#F36BFA" stroke-width="6" stroke-linecap="round"/>
</svg>
