<svg width="220" height="188" viewBox="0 0 220 188" fill="none" xmlns="http://www.w3.org/2000/svg">
<path d="M204.005 21.4985C206.826 19.2774 209.845 16.4941 213.119 13.0758C213.063 13.2421 213.005 13.4097 212.947 13.5786C210.475 20.7817 206.989 30.2056 202.831 40.4144C194.487 60.9017 183.548 84.275 172.766 99.2685L172.747 99.2958L172.728 99.3237C161.732 115.365 143.282 125.878 122.377 125.878C109.314 125.878 97.2188 121.775 87.297 114.788L85.2333 113.335L83.4484 115.12L64.0336 134.534L61.9123 136.656L64.0336 138.777L65.4479 140.191L25.3228 180.316C20.2459 185.393 12.0148 185.393 6.93798 180.316C1.86117 175.24 1.86117 167.009 6.93798 161.932L47.0631 121.807L48.4773 123.221L50.5986 125.342L52.7199 123.221L72.1347 103.806L73.9196 102.021L72.4662 99.9573C65.4793 90.0356 61.3768 77.9402 61.3768 64.8776C61.3768 31.1882 88.6875 3.8776 122.377 3.8776C123.994 3.8776 125.595 3.94048 127.179 4.06375L127.19 4.06462L127.201 4.0654C145.628 5.36174 156.578 13.0759 165.842 19.623C166.01 19.7416 166.178 19.8603 166.345 19.9789C173.513 25.0484 180.581 30.0482 189.502 28.649C194.035 27.938 198.75 25.6355 204.005 21.4985ZM122.377 19.8776C97.524 19.8776 77.3768 40.0248 77.3768 64.8776C77.3768 89.7304 97.524 109.878 122.377 109.878C130.749 109.878 138.596 107.588 145.316 103.6C158.517 95.7633 167.377 81.3567 167.377 64.8776C167.377 41.8482 150.08 22.8631 127.768 20.1975C125.999 19.9862 124.2 19.8776 122.377 19.8776Z" stroke="#F0C1F3" stroke-width="6"/>
</svg>
