<svg width="874" height="240" viewBox="0 0 874 240" fill="none" xmlns="http://www.w3.org/2000/svg">
<path d="M338.66 42.2834C338.66 16.6118 310.472 6.06464 296.378 4V31.0919H292.524V157.41M338.66 42.2834C338.66 67.9551 338.66 84.3783 338.66 89.3809M338.66 42.2834V89.3809M338.66 89.3809H357.646V149.801V166.241M338.66 89.3809V153.1V163.678M538.728 109.201V14.1141H460.074V132.005V169.339M538.728 109.201H520.737V183.061M538.728 109.201H567.288V133.751V192.024M567.288 192.024H597.658M567.288 192.024V203.214M597.658 192.024V151.233H627.039V192.024M597.658 192.024V215.213M627.039 192.024H635.894M627.039 192.024V217.993M635.894 192.024V184.461H662.925V220.348M635.894 192.024V218.831M662.925 220.348H672.402V227.453M662.925 220.348V224.332M215.016 146.881V119.957H277.234V155.333M391.013 170.79V144.004V102.409H441.072C441.072 102.409 441.072 122.459 441.072 135.307C441.072 150.405 441.072 173.969 441.072 173.969" stroke="#D807E3" stroke-width="3"/>
</svg>
