<svg width="160" height="76" viewBox="0 0 160 76" fill="none" xmlns="http://www.w3.org/2000/svg">
<path fill-rule="evenodd" clip-rule="evenodd" d="M54.3862 74.6658C33.597 54.5669 16.3348 43.5215 0.757925 38.1918C16.3348 32.8622 33.5971 21.8169 54.3863 1.71799C57.2708 -1.07074 61.8831 1.14769 61.8831 4.63587L61.8831 14.1919C61.8831 21.9239 68.1511 28.1919 75.8831 28.1919L153.117 28.1906C156.431 28.1906 159.117 30.8769 159.117 34.1906V42.1931C159.117 45.5068 156.431 48.1931 153.117 48.1931L75.8832 48.1919C68.1511 48.1919 61.8831 54.4599 61.8831 62.1919L61.883 71.7479C61.883 75.2361 57.2707 77.4545 54.3862 74.6658Z" fill="white"/>
</svg>
