<svg width="1261" height="211" viewBox="0 0 1261 211" fill="none" xmlns="http://www.w3.org/2000/svg">
<rect y="166.691" width="1260" height="43.9163" fill="#150123"/>
<path d="M225.975 110.698C168.887 135.894 51.5382 139.86 0 138.693V168.454H1260C1090.51 131.44 896.222 53.0956 808.848 12.8655L475.796 101.879L413.368 68.4524L390.503 46.3956C359.447 57.3317 283.064 85.5027 225.975 110.698Z" fill="#150123"/>
<path d="M0 138.693C51.5382 139.86 168.887 135.894 225.976 110.698C283.064 85.5027 359.447 57.3317 390.503 46.3956L413.368 68.4524L475.796 101.879M405.488 120.669L475.796 101.879M475.796 101.879L808.848 12.8655C896.222 53.0956 1090.51 131.44 1260 168.454" stroke="#68036D" stroke-width="6"/>
</svg>
