<svg width="1261" height="180" viewBox="0 0 1261 180" fill="none" xmlns="http://www.w3.org/2000/svg">
<path d="M354.279 37.2699V55.257L395.061 65.1901V37.2699H354.279Z" fill="#150123"/>
<path d="M412.483 72.3829V65.0245H438.478V14.8218L500.116 22.8569V57.3893L541.54 51.0414L559.91 57.3893V111.642H586.687V100.645H606.343V96.8608H586.687V85.5096H606.343V81.7259H586.687V70.3747H606.343V66.591H586.687V55.2398H606.343V51.456H586.687V36.4077H646.893V113.074L660.868 111.898V87.6159L686.256 85.507V24.1213L741.685 15.606C738.341 31.4243 731.653 65.189 731.653 73.7011H767.265C773.033 73.7011 772.434 81.1835 772.434 95.3173L798.925 92.9382V97.089H811.441V64.4974H834.642V100.383H869.892V113.633L834.642 129.066L818.261 138.385L798.925 141.492H770.445L731.653 144.294H700.291H664.02L627.452 147.421L590.651 151.644L554.591 159.384L544.568 151.644L500.116 119.785L438.478 82.9927L412.483 72.3829Z" fill="#150123"/>
<path d="M500.116 57.3893V22.8569L438.478 14.8218V65.0245M500.116 57.3893V119.785M500.116 57.3893L541.54 51.0414L559.91 57.3893V111.642M500.116 119.785L438.478 82.9927M500.116 119.785L544.568 151.644M438.478 82.9927V65.0245M438.478 82.9927L412.483 72.3829V65.0245H438.478M544.568 151.644V111.642H559.91M544.568 151.644L554.591 159.384L590.651 151.644M590.651 151.644V111.642H586.687M590.651 151.644L627.452 147.421M586.687 111.642V100.645H606.343V96.8608H586.687V85.5096H606.343V81.7259H586.687V70.3747H606.343V66.591H586.687V55.2398H606.343V51.456H586.687V36.4077H646.893V113.074M586.687 111.642H559.91M627.452 147.421V114.711L646.893 113.074M627.452 147.421L664.02 144.294M664.02 144.294V111.632L660.868 111.898M664.02 144.294H700.291M646.893 113.074L660.868 111.898M660.868 111.898V87.6159L686.256 85.507M700.291 144.294V84.3412L686.256 85.507M700.291 144.294H731.653M686.256 85.507V24.1213L741.685 15.606C738.341 31.4243 731.653 65.189 731.653 73.7011M731.653 73.7011V144.294M731.653 73.7011H767.265C773.033 73.7011 772.434 81.1835 772.434 95.3173M731.653 144.294L770.445 141.492M772.434 95.3173C772.434 109.451 770.445 130.205 770.445 141.492M772.434 95.3173L798.925 92.9382V97.089M770.445 141.492H798.925M798.925 97.089V141.492M798.925 97.089H811.441V64.4974H834.642V100.383M798.925 141.492L818.261 138.385L834.642 129.066M834.642 100.383V129.066M834.642 100.383H869.892V113.633L834.642 129.066M354.279 55.257V37.2699H395.061V65.1901L354.279 55.257Z" stroke="#D807E3" stroke-width="3"/>
<path d="M354.279 37.27V55.2571L395.061 65.1903V37.27H354.279Z" fill="#150123"/>
<path fill-rule="evenodd" clip-rule="evenodd" d="M412.483 65.0246V72.383L438.478 82.9928V65.0246H412.483ZM541.54 51.0415L500.116 57.3894V119.785L544.568 151.644L554.591 159.384L590.651 151.644V111.642H586.687H559.91V57.3894L541.54 51.0415ZM664.02 144.294L627.452 147.421V114.711L646.893 113.075L660.868 111.898V87.616L686.256 85.5071L700.291 84.3413V144.294H664.02ZM731.653 144.294L770.445 141.492C770.445 136.166 770.888 128.731 771.356 120.879C771.879 112.092 772.434 102.781 772.434 95.3175C772.434 94.0486 772.439 92.8333 772.443 91.6723C772.49 79.9004 772.515 73.7012 767.265 73.7012H731.653V144.294ZM834.642 100.383V129.066L869.892 113.633V100.383H834.642Z" fill="#150123"/>
<path d="M500.116 119.785V57.3894L541.54 51.0415L559.91 57.3894V111.642M500.116 119.785L438.478 82.9928M500.116 119.785L544.568 151.644M438.478 82.9928V65.0246H412.483V72.383L438.478 82.9928ZM544.568 151.644V111.642H559.91M544.568 151.644L554.591 159.384L590.651 151.644M590.651 151.644V111.642H586.687H559.91M590.651 151.644L627.452 147.421M627.452 147.421V114.711L646.893 113.075L660.868 111.898M627.452 147.421L664.02 144.294M664.02 144.294V111.632L660.868 111.898M664.02 144.294H700.291M660.868 111.898V87.616L686.256 85.5071L700.291 84.3413V144.294M700.291 144.294H731.653M731.653 144.294V73.7012H767.265C772.515 73.7012 772.49 79.9004 772.443 91.6723C772.439 92.8333 772.434 94.0486 772.434 95.3175C772.434 102.781 771.879 112.092 771.356 120.879C770.888 128.731 770.445 136.166 770.445 141.492M731.653 144.294L770.445 141.492M770.445 141.492H798.925L818.261 138.385L834.642 129.066M834.642 129.066V100.383H869.892V113.633L834.642 129.066ZM354.279 55.2571V37.27H395.061V65.1903L354.279 55.2571Z" stroke="#D807E3" stroke-width="3"/>
<path d="M-0.00012207 174.325H1260V180H-0.00012207V174.325Z" fill="#150123"/>
<path d="M814.764 138.552L611.821 148.429L550.059 158.927L453.831 89.8767L299.568 34.0491L0 102.837L-0.00012207 174.325H1260L1190.02 165.741L1046.19 121.403L1014.25 95.1721L1005.87 101.467L967.588 71.8879L814.764 138.552Z" fill="#150123"/>
<path d="M480.537 171.473L615.365 148.429L817.198 138.552L969.186 71.8879L1007.26 101.467L1015.59 95.1721L1047.36 121.403L1190.4 165.741L1260 174.325" stroke="#F261FA" stroke-width="10"/>
<path d="M-0.00012207 102.837L301.678 34.0491L457.027 89.8767L554.545 159.363" stroke="#F261FA" stroke-width="10"/>
</svg>
