<svg width="1261" height="181" viewBox="0 0 1261 181" fill="none" xmlns="http://www.w3.org/2000/svg">
<!-- <rect y="0.606934" width="1260" height="180" fill="#150123"/> -->
<path d="M354.28 37.8768V55.8639L395.061 65.7971V37.8768H354.28Z" fill="#150123"/>
<path d="M412.483 72.9898V65.6314H438.478V15.4287L500.117 23.4639V57.9963L541.54 51.6483L559.91 57.9963V112.249H586.687V101.251H606.343V97.4677H586.687V86.1165H606.343V82.3328H586.687V70.9816H606.343V67.1979H586.687V55.8467H606.343V52.063H586.687V37.0146H646.893V113.681L660.868 112.505V88.2228L686.257 86.1139V24.7282L741.685 16.2129C738.341 32.0313 731.654 65.796 731.654 74.308H767.265C773.033 74.308 772.434 81.7904 772.434 95.9243L798.925 93.5451V97.6959H811.442V65.1043H834.642V100.99H869.893V114.24L834.642 129.673L818.261 138.992L798.925 142.099H770.445L731.654 144.901H700.291H664.02L627.453 148.028L590.652 152.25L554.591 159.991L544.568 152.25L500.117 120.392L438.478 83.5997L412.483 72.9898Z" fill="#150123"/>
<path d="M500.117 57.9963V23.4639L438.478 15.4287V65.6314M500.117 57.9963V120.392M500.117 57.9963L541.54 51.6483L559.91 57.9963V112.249M500.117 120.392L438.478 83.5997M500.117 120.392L544.568 152.25M438.478 83.5997V65.6314M438.478 83.5997L412.483 72.9898V65.6314H438.478M544.568 152.25V112.249H559.91M544.568 152.25L554.591 159.991L590.652 152.25M590.652 152.25V112.249H586.687M590.652 152.25L627.453 148.028M586.687 112.249V101.251H606.343V97.4677H586.687V86.1165H606.343V82.3328H586.687V70.9816H606.343V67.1979H586.687V55.8467H606.343V52.063H586.687V37.0146H646.893V113.681M586.687 112.249H559.91M627.453 148.028V115.318L646.893 113.681M627.453 148.028L664.02 144.901M664.02 144.901V112.239L660.868 112.505M664.02 144.901H700.291M646.893 113.681L660.868 112.505M660.868 112.505V88.2228L686.257 86.1139M700.291 144.901V84.9481L686.257 86.1139M700.291 144.901H731.654M686.257 86.1139V24.7282L741.685 16.2129C738.341 32.0313 731.654 65.796 731.654 74.308M731.654 74.308V144.901M731.654 74.308H767.265C773.033 74.308 772.434 81.7904 772.434 95.9243M731.654 144.901L770.445 142.099M772.434 95.9243C772.434 110.058 770.445 130.812 770.445 142.099M772.434 95.9243L798.925 93.5451V97.6959M770.445 142.099H798.925M798.925 97.6959V142.099M798.925 97.6959H811.442V65.1043H834.642V100.99M798.925 142.099L818.261 138.992L834.642 129.673M834.642 100.99V129.673M834.642 100.99H869.893V114.24L834.642 129.673M354.28 55.8639V37.8768H395.061V65.7971L354.28 55.8639Z" stroke="#D807E3" stroke-width="3"/>
<path d="M480.537 172.08L615.365 149.036L817.198 139.159L969.186 72.4949L1007.26 102.074L1015.59 95.779L1047.36 122.01L1190.4 166.348L1260 174.932" stroke="#F261FA" stroke-width="10"/>
<path d="M6.88965 103.444L304.82 34.656L458.239 90.4836L554.545 159.97" stroke="#F261FA" stroke-width="10"/>
</svg>
