<svg width="874" height="291" viewBox="0 0 874 291" fill="none" xmlns="http://www.w3.org/2000/svg">
<path d="M15 285C24.5 282.503 44.3 276.608 47.5 273.012C51.5 268.517 30 258.027 32.5 251.284C35 244.541 57.5 236.674 57.5 231.804C57.5 226.934 54 220.94 57.5 217.943C61 214.946 69 214.571 75.5 214.196C82 213.822 109.5 208.952 118 208.202C126.5 207.453 169 201.459 166.5 196.964C164.5 193.367 161.333 192.718 160 192.843C166.833 192.718 179.6 191.794 176 189.097C171.5 185.725 157.5 178.233 156.5 175.61C155.5 172.988 160.5 172.239 158.5 169.242C156.9 166.844 146.167 162.748 141 161C150.833 165.121 286.3 173.288 301.5 172.988C320.5 172.613 362 175.61 379.5 175.61C414.977 175.61 445.167 173.439 475 186C484.5 190 463.183 195.682 456 197.338C450.8 198.537 501.667 199.251 527.5 200C523.167 200.749 511.5 206.5 515 211C518.5 215.5 648 219.066 644 228.432C640 237.798 640.5 240.42 649.5 243.417C658.5 246.414 641 264.021 644 268.517C646.4 272.113 653.667 280.005 657 283.501" stroke="#5C6DFF" stroke-width="5"/>
<path d="M166 260H209.5M359.5 281.5H420" stroke="#5C6DFF" stroke-width="3.5"/>
<path d="M442 231.804H477" stroke="#5C6DFF" stroke-width="3"/>
<path d="M307.5 201.084H279" stroke="#5C6DFF" stroke-width="2"/>
<path d="M221.5 182.728H208" stroke="#5C6DFF"/>
</svg>
