<svg width="874" height="240" viewBox="0 0 874 240" fill="none" xmlns="http://www.w3.org/2000/svg">
<path d="M15 234C24.5 231.934 44.3 227.057 47.5 224.082C51.5 220.363 30 211.684 32.5 206.106C35 200.527 57.5 194.018 57.5 189.989C57.5 185.959 54 181 57.5 178.521C61 176.041 69 175.732 75.5 175.422C82 175.112 109.5 171.082 118 170.463C126.5 169.843 169 164.884 166.5 161.164C164.5 158.189 161.333 157.652 160 157.755C166.833 157.652 179.6 156.887 176 154.656C171.5 151.866 157.5 145.667 156.5 143.498C155.5 141.328 160.5 140.708 158.5 138.229C156.9 136.245 146.167 132.857 141 131.41C150.833 134.819 286.3 141.576 301.5 141.328C320.5 141.018 362 143.498 379.5 143.498C414.977 143.498 445.167 141.701 475 152.094C484.5 155.403 463.183 160.104 456 161.474C450.8 162.466 501.667 163.056 527.5 163.676C523.167 164.296 511.5 169.054 515 172.777C518.5 176.5 648 179.451 644 187.199C640 194.948 640.5 197.117 649.5 199.597C658.5 202.076 641 216.643 644 220.363C646.4 223.338 653.667 229.868 657 232.76" stroke="#5C6DFF" stroke-width="5"/>
<path d="M166 213.317H209.5M359.5 231.104H420" stroke="#5C6DFF" stroke-width="3.5"/>
<path d="M442 189.989H477" stroke="#5C6DFF" stroke-width="3"/>
<path d="M307.5 164.573H279" stroke="#5C6DFF" stroke-width="2"/>
<path d="M221.5 149.386H208" stroke="#5C6DFF"/>
</svg>
