<svg width="874" height="240" viewBox="0 0 874 240" fill="none" xmlns="http://www.w3.org/2000/svg">
<path d="M3 133.445C44.3241 122.036 94.1615 96.6627 106.466 92.4504C121.846 87.1851 172.646 78.9111 188.958 81.1676M188.958 81.1676C202.008 82.9729 253.741 85.0539 271.451 88.3134L188.958 81.1676ZM188.958 81.1676C191.444 79.914 210.863 72.0662 216.456 70.2609C223.447 68.0044 256.071 58.6021 267.257 53.7128C278.442 48.8236 298.949 38.6691 308.27 37.1647C317.591 35.6604 349.283 36.7886 365.129 32.6516C380.975 28.5146 392.627 20.6166 399.618 18.7361C405.211 17.2318 411.735 20.6166 423.387 18.7361C435.038 16.8557 437.835 11.9665 458.808 8.20552C479.78 4.44459 510.158 4.84218 540.834 4.0686C570.662 3.31641 598.16 8.95771 612.608 10.8382C627.056 12.7186 662.01 35.4258 673.662 33.4038C717.005 25.8819 748.259 70.436 788.779 81.1676M871 142.993C856.676 142.993 818.244 88.9713 788.779 81.1676M437.369 63.8673C442.34 63.742 448.088 65.7478 461.604 61.9869C475.12 58.2259 502.617 55.9694 516.599 53.7128C530.581 51.4562 560.875 44.3105 569.73 42.43C578.585 40.5495 606.083 36.7886 630.784 37.9169C695.457 40.871 721.928 78.085 788.779 81.1676" stroke="#68036D" stroke-width="5"/>
</svg>
