<svg width="874" height="291" viewBox="0 0 874 291" fill="none" xmlns="http://www.w3.org/2000/svg">
<path d="M3 163.459C44.3241 149.67 94.1615 119.001 106.466 113.91C121.846 107.545 172.646 97.5447 188.958 100.272M188.958 100.272C202.008 102.454 253.741 104.97 271.451 108.909L188.958 100.272ZM188.958 100.272C191.444 98.7569 210.863 89.2713 216.456 87.0893C223.447 84.3618 256.071 72.9973 267.257 67.0877C278.442 61.1781 298.949 48.9044 308.27 47.0861C317.591 45.2677 349.283 46.6315 365.129 41.6311C380.975 36.6307 392.627 27.0844 399.618 24.8115C405.211 22.9932 411.735 27.0844 423.387 24.8115C435.038 22.5386 437.835 16.629 458.808 12.0832C479.78 7.53737 510.158 8.01793 540.834 7.08291C570.662 6.17375 598.16 12.9924 612.608 15.2653C627.056 17.5382 662.01 44.9842 673.662 42.5402C717.005 33.4486 748.259 81.846 788.779 94.8172M871 175C856.676 175 818.244 104.249 788.779 94.8172M437.369 79.3614C442.34 79.2098 448.088 81.6343 461.604 77.0885C475.12 72.5426 502.617 69.8151 516.599 67.0876C530.581 64.3602 560.875 55.7231 569.73 53.4502C578.585 51.1773 606.083 41.1765 630.784 42.5402C695.457 46.1108 721.928 91.0912 788.779 94.8172" stroke="#68036D" stroke-width="5"/>
</svg>
