<svg width="874" height="291" viewBox="0 0 874 291" fill="none" xmlns="http://www.w3.org/2000/svg">
<path d="M499 189.5C499.458 184.985 499.988 178.374 500.293 171.5M499 143.5C499.505 145.016 499.866 148.075 500.111 150.5M500.293 171.5C495.529 170.333 491.4 169.873 489 155.873M500.293 171.5C500.488 167.115 500.592 162.623 500.527 158.5M500.527 158.5C492.518 159.167 477.4 154.7 481 131.5C483 122.5 487.5 113 489 110.5C496 105 518.5 118.5 517.5 131.5C516.7 141.9 510 152 500.111 150.5M500.527 158.5C500.481 155.594 500.351 152.872 500.111 150.5" stroke="#F36BFA" stroke-width="4"/>
<path d="M736.484 281C738.024 275.476 740.146 267.107 742.006 258.287M745.95 225.001C734.814 220.955 712.542 216.464 712.542 210.512M745.95 225.001C745.438 220.084 744.352 213.074 743.092 205.421M745.95 225.001C746.377 229.11 745.943 234.958 745.032 241.449M743.092 125.143C741.619 128.798 736.571 149.002 736.429 153.73M743.978 248.106C718.547 248.106 660.982 237.219 675.236 225.001C693.054 209.729 704.19 197.198 682.475 192.107C660.759 187.016 695.281 132.192 712.542 120.053C729.803 107.913 746.507 82.8505 772.676 127.493C798.846 172.135 807.145 227.032 786.04 244.581C774.784 253.941 772.676 260.206 742.006 258.287M743.978 248.106C743.39 251.476 742.717 254.915 742.006 258.287M743.978 248.106C744.373 245.842 744.729 243.61 745.032 241.449M743.092 205.421C752.397 203.463 769.336 206.988 780.472 193.673M743.092 205.421C742.255 200.342 741.341 194.979 740.468 189.757C739.835 185.975 739.223 182.266 738.676 178.793M738.676 178.793C734.048 177.487 710.871 174.485 707.531 164.303M738.676 178.793C738.33 176.594 737.846 173.597 737.413 170.177M745.032 241.449C754.989 234.922 776.017 223.435 780.472 229.701M736.429 153.73C740.345 153.73 752.966 149.501 756.529 146.681M736.429 153.73C736.261 159.334 736.784 165.203 737.413 170.177M737.413 170.177C744.342 169.655 761.652 170.334 766.552 172.527" stroke="#F36BFA" stroke-width="5"/>
<path d="M602.57 201C603.443 193.393 604.546 182.413 605.434 170.917M606.048 98.9554C610.251 116.461 610.623 128.498 609.75 138.217M605.85 165.249C598.091 161.47 582.658 150.774 583.006 138.217C583.441 122.522 599.092 66.7146 606.048 68.0226C613.004 69.3306 638.655 129.497 636.916 141.705C635.524 151.471 615.348 165.249 605.434 170.917M605.85 165.249C605.719 167.143 605.579 169.037 605.434 170.917M605.85 165.249C606.471 156.323 608.819 148.589 609.75 138.217M609.75 138.217C605.761 136.466 597.521 131.306 596.477 124.679" stroke="#F36BFA" stroke-width="5"/>
<path d="M558.376 49C558.214 47.7988 558.01 46.0652 557.846 44.25M557.732 32.8877C556.953 35.6518 556.885 37.5523 557.046 39.0869M557.768 43.3551C559.205 42.7584 562.063 41.0695 561.999 39.0869C561.918 36.6087 559.02 27.797 557.732 28.0036C556.444 28.2101 551.694 37.7101 552.016 39.6377C552.273 41.1797 556.01 43.3551 557.846 44.25M557.768 43.3551C557.793 43.6542 557.819 43.9532 557.846 44.25M557.768 43.3551C557.654 41.9457 557.219 40.7246 557.046 39.0869M557.046 39.0869C557.785 38.8104 559.311 37.9957 559.504 36.9493" stroke="#F36BFA"/>
<path d="M329.926 109C329.7 106.998 329.414 104.109 329.184 101.083M329.025 82.1462C327.935 86.753 327.838 89.9205 328.065 92.4782M329.076 99.5918C331.088 98.5974 335.089 95.7826 334.999 92.4782C334.886 88.3478 330.828 73.6617 329.025 74.006C327.221 74.3502 320.571 90.1835 321.022 93.3961C321.383 95.9661 326.613 99.5918 329.184 101.083M329.076 99.5918C329.11 100.09 329.146 100.589 329.184 101.083M329.076 99.5918C328.915 97.2428 328.306 95.2077 328.065 92.4782M328.065 92.4782C329.099 92.0173 331.235 90.6595 331.506 88.9155" stroke="#F36BFA" stroke-width="1.5"/>
<path d="M170.498 159.615C170.5 158.315 170.541 156.356 170.656 154.308M171.662 146.712C173.956 146.299 178.354 146.276 178.666 144.949M171.662 146.712C172.015 145.638 172.586 144.123 173.222 142.472C173.645 141.376 174.096 140.22 174.533 139.094M171.662 146.712C171.367 147.61 171.142 148.933 170.972 150.42M177.427 124.572C177.511 125.451 177.396 130.178 177.175 131.238M170.82 151.951C175.574 153.067 186.904 153.168 184.879 149.817C182.349 145.63 180.924 142.346 185.25 142.165C189.575 141.983 185.994 128.243 183.404 124.778C180.814 121.313 179.004 114.991 171.774 123.796C164.545 132.602 160.118 144.478 163.143 149.318C164.757 151.899 164.823 153.389 170.656 154.308M170.82 151.951C170.754 152.728 170.699 153.524 170.656 154.308M170.82 151.951C170.865 151.429 170.916 150.915 170.972 150.42M175.442 136.728C176.376 136.64 180.865 136.989 182.023 134.865M175.442 136.728C175.158 137.479 174.849 138.279 174.533 139.094M175.442 136.728C175.622 136.253 175.87 135.606 176.13 134.863C176.508 133.781 176.913 132.495 177.175 131.238M170.972 150.42C169.453 148.528 166.124 145.043 164.964 146.244M174.533 139.094C172.701 138.48 168.942 136.823 168.559 135.111M177.175 131.238C176.443 131.066 174.306 129.569 173.787 128.784" stroke="#F36BFA" stroke-width="2"/>
</svg>
