<svg width="874" height="240" viewBox="0 0 874 240" fill="none" xmlns="http://www.w3.org/2000/svg">
<path d="M499 154.989C499.458 151.254 499.988 145.784 500.293 140.097M499 116.932C499.505 118.186 499.866 120.717 500.111 122.723M500.293 140.097C495.529 139.132 491.4 138.751 489 127.168M500.293 140.097C500.488 136.469 500.592 132.753 500.527 129.342M500.527 129.342C492.518 129.893 477.4 126.198 481 107.004C483 99.5575 487.5 91.6978 489 89.6294C496 85.0791 518.5 96.2481 517.5 107.004C516.7 115.608 510 123.964 500.111 122.723M500.527 129.342C500.481 126.938 500.351 124.686 500.111 122.723" stroke="#F36BFA" stroke-width="4"/>
<path d="M730.39 231C731.782 226.587 733.7 219.901 735.382 212.855M738.947 186.264C728.88 183.031 708.746 179.444 708.746 174.688M738.947 186.264C738.484 182.336 737.503 176.735 736.363 170.622M738.947 186.264C739.333 189.546 738.94 194.218 738.117 199.403M736.363 106.489C735.031 109.409 730.468 125.549 730.34 129.326M737.164 204.721C714.174 204.721 662.136 196.024 675.022 186.264C691.129 174.063 701.196 164.052 681.565 159.985C661.934 155.918 693.142 112.12 708.746 102.422C724.35 92.7237 739.45 72.7018 763.107 108.366C786.765 144.03 794.267 187.886 775.188 201.906C765.012 209.383 763.107 214.388 735.382 212.855M737.164 204.721C736.633 207.414 736.025 210.161 735.382 212.855M737.164 204.721C737.521 202.913 737.843 201.13 738.117 199.403M736.363 170.622C744.775 169.057 760.087 171.873 770.154 161.236M736.363 170.622C735.607 166.563 734.781 162.279 733.991 158.108C733.419 155.086 732.865 152.123 732.371 149.348M732.371 149.348C728.187 148.305 707.236 145.907 704.216 137.773M732.371 149.348C732.059 147.592 731.621 145.198 731.23 142.466M738.117 199.403C747.118 194.189 766.128 185.012 770.154 190.018M730.34 129.326C733.88 129.326 745.289 125.948 748.51 123.695M730.34 129.326C730.188 133.803 730.66 138.492 731.23 142.466M731.23 142.466C737.493 142.049 753.141 142.591 757.571 144.343" stroke="#F36BFA" stroke-width="5"/>
<path d="M602.57 164.504C603.443 158.21 604.546 149.126 605.434 139.614M606.048 80.0781C610.251 94.5614 610.623 104.52 609.75 112.561M605.85 134.925C598.091 131.799 582.658 122.949 583.006 112.561C583.441 99.5753 599.092 53.4041 606.048 54.4862C613.004 55.5684 638.655 105.347 636.916 115.447C635.524 123.527 615.348 134.925 605.434 139.614M605.85 134.925C605.719 136.493 605.579 138.059 605.434 139.614M605.85 134.925C606.471 127.54 608.819 121.142 609.75 112.561M609.75 112.561C605.761 111.112 597.521 106.843 596.477 101.36" stroke="#F36BFA" stroke-width="5"/>
<path d="M558.376 38.7481C558.214 37.7543 558.01 36.3201 557.846 34.8183M557.732 25.4178C556.953 27.7046 556.885 29.277 557.046 30.5467M557.768 34.0778C559.205 33.5842 562.063 32.187 561.999 30.5467C561.918 28.4963 559.02 21.2061 557.732 21.377C556.444 21.5478 551.694 29.4076 552.016 31.0023C552.273 32.2781 556.01 34.0778 557.846 34.8183M557.768 34.0778C557.793 34.3254 557.819 34.5727 557.846 34.8183M557.768 34.0778C557.654 32.9118 557.219 31.9016 557.046 30.5467M557.046 30.5467C557.785 30.3179 559.311 29.6438 559.504 28.7781" stroke="#F36BFA"/>
<path d="M329.926 88.3885C329.7 86.7322 329.414 84.3417 329.184 81.8387M329.025 66.1713C327.935 69.9827 327.838 72.6032 328.065 74.7194M329.076 80.6047C331.088 79.782 335.089 77.4532 334.999 74.7194C334.886 71.3021 330.828 59.1518 329.025 59.4366C327.221 59.7213 320.571 72.8209 321.022 75.4788C321.383 77.6051 326.613 80.6047 329.184 81.8387M329.076 80.6047C329.11 81.0172 329.146 81.4295 329.184 81.8387M329.076 80.6047C328.915 78.6613 328.306 76.9776 328.065 74.7194M328.065 74.7194C329.099 74.338 331.235 73.2146 331.506 71.7718" stroke="#F36BFA" stroke-width="1.5"/>
<path d="M170.498 130.264C170.5 129.189 170.541 127.568 170.656 125.873M171.662 119.589C173.956 119.247 178.354 119.228 178.666 118.13M171.662 119.589C172.015 118.701 172.586 117.447 173.222 116.081C173.645 115.174 174.096 114.218 174.533 113.287M171.662 119.589C171.367 120.332 171.142 121.427 170.972 122.657M177.427 101.272C177.511 101.999 177.396 105.91 177.175 106.787M170.82 123.923C175.574 124.847 186.904 124.93 184.879 122.158C182.349 118.694 180.924 115.977 185.25 115.827C189.575 115.677 185.994 104.309 183.404 101.442C180.814 98.5756 179.004 93.3453 171.774 100.63C164.545 107.915 160.118 117.741 163.143 121.745C164.757 123.881 164.823 125.113 170.656 125.873M170.82 123.923C170.754 124.566 170.699 125.225 170.656 125.873M170.82 123.923C170.865 123.492 170.916 123.067 170.972 122.657M175.442 111.329C176.376 111.256 180.865 111.545 182.023 109.788M175.442 111.329C175.158 111.95 174.849 112.612 174.533 113.287M175.442 111.329C175.622 110.936 175.87 110.401 176.13 109.786C176.508 108.891 176.913 107.827 177.175 106.787M170.972 122.657C169.453 121.091 166.124 118.208 164.964 119.202M174.533 113.287C172.701 112.778 168.942 111.407 168.559 109.991M177.175 106.787C176.443 106.645 174.306 105.406 173.787 104.757" stroke="#F36BFA" stroke-width="2"/>
</svg>
