<svg width="180" height="247" viewBox="0 0 180 247" fill="none" xmlns="http://www.w3.org/2000/svg">
<path d="M84.5886 77.6036C56.0265 77.3937 35.6005 98.9844 38.5296 123.903C40.1383 137.589 62.4551 142.432 62.4551 142.432C62.4551 142.432 51.5228 152.55 40.6342 163.926C23.4537 181.875 28.4996 200.039 35.7099 206.792C42.9201 213.546 60.5507 218.373 75.5681 211.128C99.3598 199.649 114.325 171.248 123.946 143.75L155.56 93.8199C133.174 98.5497 118.205 77.8506 84.5886 77.6036Z" fill="#15024F"/>
<path d="M84.5886 77.6037C56.0265 77.3939 35.6005 98.9845 38.5297 123.904C40.1383 137.589 62.4551 142.432 62.4551 142.432C62.4551 142.432 51.5228 152.55 40.6342 163.926C23.4537 181.875 28.4996 200.039 35.7099 206.793C42.9202 213.546 60.5507 218.373 75.5682 211.128C99.3599 199.649 114.325 171.248 123.946 143.75L160.742 69.8774C123.565 96.9193 118.205 77.8507 84.5886 77.6037Z" fill="#9805FA"/>
<path d="M84.5885 77.6036C56.0264 77.3938 35.6004 98.9844 38.5296 123.903C40.1382 137.589 62.455 142.432 62.455 142.432C62.455 142.432 51.5227 152.55 40.6341 163.926C23.4536 181.875 28.4995 200.039 35.7098 206.792C42.9201 213.546 60.5506 218.373 75.5681 211.128C99.3598 199.649 114.325 171.248 123.946 143.75L166.537 35.1736C130.274 73.1057 118.205 77.8506 84.5885 77.6036Z" fill="#F36BFA"/>
<mask id="mask0_386_64" style="mask-type:alpha" maskUnits="userSpaceOnUse" x="0" y="-5" width="176" height="252">
<path d="M175.02 -4.88483L98.9375 43.486H0.609253V246.087H175.02V-4.88483Z" fill="#D9D9D9"/>
</mask>
<g mask="url(#mask0_386_64)">
<mask id="mask1_386_64" style="mask-type:alpha" maskUnits="userSpaceOnUse" x="-8" y="9" width="176" height="230">
<path d="M103.901 171.435L151.758 95.485L167.472 139.018V238.823H-7.29858V9.6308H159.076V88.6198H102.477V170.94L103.901 171.435Z" fill="#D9D9D9"/>
</mask>
<g mask="url(#mask1_386_64)">
<path d="M132.705 32.8735C132.705 32.8735 118.438 65.8878 87.1763 66.7118C55.9142 67.5358 34.3666 91.6415 38.4994 118.488C42.2922 137.65 59.2984 139.469 59.2984 139.469C59.2984 139.469 50.7529 151.302 42.2922 161.702C27.1952 180.26 34.1509 199.988 42.2922 207.028C50.4335 214.068 67.0581 223.454 87.1763 213.941C107.295 204.427 126.97 184.372 132.705 141.137" stroke="#15024F" stroke-width="39" stroke-linecap="round"/>
</g>
</g>
<mask id="mask2_386_64" style="mask-type:alpha" maskUnits="userSpaceOnUse" x="0" y="-4" width="176" height="243">
<path d="M175.185 -3.56354L99.0522 45.1687L0.774414 44.8073V238.156H175.185V-3.56354Z" fill="#D9D9D9"/>
</mask>
<g mask="url(#mask2_386_64)">
<mask id="mask3_386_64" style="mask-type:alpha" maskUnits="userSpaceOnUse" x="-8" y="9" width="176" height="230">
<path d="M105.21 172.179L152.825 95.485L167.472 139.018V238.823H-7.29858V9.6308H159.076V88.6198H102.477V170.94L105.21 172.179Z" fill="#D9D9D9"/>
</mask>
<g mask="url(#mask3_386_64)">
<path d="M132.705 32.8734C132.705 32.8734 118.438 65.8877 87.1763 66.7117C55.9142 67.5357 34.3666 91.6414 38.4994 118.488C42.2922 137.65 59.2984 139.469 59.2984 139.469C59.2984 139.469 50.7529 151.302 42.2922 161.702C27.1952 180.26 34.1509 199.988 42.2922 207.028C50.4335 214.068 67.0581 223.454 87.1763 213.94C107.295 204.427 126.97 184.372 132.705 141.137" stroke="#24013C" stroke-width="36" stroke-linecap="round"/>
</g>
</g>
<path fill-rule="evenodd" clip-rule="evenodd" d="M56.4849 116.089C56.3724 115.343 56.3363 114.598 56.3726 113.858C56.3635 114.613 56.4011 115.359 56.4849 116.089ZM56.5717 116.588C58.2851 125.281 69.9684 130.671 82.8681 128.656C86.9251 128.022 90.6245 126.73 93.7505 124.984L94.4582 124.047L60.5659 120.579C60.5335 120.571 60.496 120.561 60.4537 120.549C60.0332 120.435 59.4332 120.221 58.8501 119.884C58.1451 119.478 57.1661 118.849 56.5717 116.588Z" fill="#15024F"/>
<ellipse cx="81.486" cy="110.797" rx="24.0308" ry="17.0658" transform="rotate(-9.27521 81.486 110.797)" fill="#F36BFA"/>
<mask id="mask4_386_64" style="mask-type:alpha" maskUnits="userSpaceOnUse" x="4" y="8" width="176" height="232">
<path d="M179.391 8.8222L102.382 57.1931H4.97998V239.607H179.391V8.8222Z" fill="#D9D9D9"/>
</mask>
<g mask="url(#mask4_386_64)">
<mask id="mask5_386_64" style="mask-type:alpha" maskUnits="userSpaceOnUse" x="-8" y="9" width="176" height="230">
<path d="M119.186 170.94L139.412 139.018H167.472V238.823H-7.29858V9.6308H159.076V88.6198H102.477V170.94H119.186Z" fill="#D9D9D9"/>
</mask>
<g mask="url(#mask5_386_64)">
<path d="M132.705 32.8735C132.705 32.8735 118.438 65.8878 87.1763 66.7118C55.9142 67.5358 34.3666 91.6415 38.4994 118.488C42.2922 137.65 59.2984 139.469 59.2984 139.469C59.2984 139.469 50.7529 151.302 42.2922 161.702C27.1952 180.26 34.1509 199.988 42.2922 207.028C50.4335 214.068 67.0581 223.454 87.1763 213.941C107.295 204.427 126.97 184.372 132.705 141.137" stroke="#FFDBEB" stroke-width="11" stroke-linecap="round"/>
</g>
</g>
</svg>
