<svg width="758" height="207" viewBox="0 0 758 207" fill="none" xmlns="http://www.w3.org/2000/svg">
<path d="M294.255 36.0004C294.255 13.6336 269.696 4.44423 257.417 2.64539V26.2496H254.059V136.307M294.255 36.0004C294.255 58.3672 294.255 72.6762 294.255 77.0348M294.255 36.0004V77.0348M294.255 77.0348H310.797V129.677V144M294.255 77.0348V132.551V141.767M468.568 94.3036V11.4575H400.039V114.172V146.699M468.568 94.3036H452.893V158.655M468.568 94.3036H493.451V115.693V166.464M493.451 166.464H519.911M493.451 166.464V176.214M519.911 166.464V130.924H545.51V166.464M519.911 166.464V186.668M545.51 166.464H553.225M545.51 166.464V189.09M553.225 166.464V159.875H576.777V191.142M553.225 166.464V189.82M576.777 191.142H585.033V197.332M576.777 191.142V194.613M186.529 127.133V103.675H240.737V134.497M339.869 147.963V124.626V88.3854H383.483C383.483 88.3854 383.483 105.855 383.483 117.048C383.483 130.203 383.483 150.734 383.483 150.734" stroke="#D807E3" stroke-width="3"/>
</svg>
