<svg width="874" height="291" viewBox="0 0 874 291" fill="none" xmlns="http://www.w3.org/2000/svg">
<path d="M338.66 93.2834C338.66 67.6118 310.472 57.0646 296.378 55V82.0919H292.524V208.41M338.66 93.2834C338.66 118.955 338.66 135.378 338.66 140.381M338.66 93.2834V140.381M338.66 140.381H357.646V200.801V217.241M338.66 140.381V204.1V214.678M538.728 160.201V65.1141H460.074V183.005V220.339M538.728 160.201H520.737V234.061M538.728 160.201H567.288V184.751V243.024M567.288 243.024H597.658M567.288 243.024V254.214M597.658 243.024V202.233H627.039V243.024M597.658 243.024V266.213M627.039 243.024H635.894M627.039 243.024V268.993M635.894 243.024V235.461H662.925V271.348M635.894 243.024V269.831M662.925 271.348H672.402V278.453M662.925 271.348V275.332M215.016 197.881V170.957H277.234V206.333M391.013 221.79V195.004V153.409H441.072C441.072 153.409 441.072 173.459 441.072 186.307C441.072 201.405 441.072 224.969 441.072 224.969" stroke="#D807E3" stroke-width="3"/>
</svg>
